<svg width="842" height="121" viewBox="0 0 842 121" fill="none" xmlns="http://www.w3.org/2000/svg">
<path d="M816.87 53.69V42.67C816.87 40.78 817.82 39.42 819.71 39.42C821.6 39.42 822.55 40.77 822.55 42.67V53.69H816.87ZM819.57 101.36C833.23 101.36 841.88 94.06 841.88 80.6V71.94H822.54V82.49C822.54 84.25 821.59 85.67 819.7 85.67C817.81 85.67 816.86 84.25 816.86 82.49V67.88H841.88V45.43C841.88 31.43 833.22 23.86 819.57 23.86C805.92 23.86 797.46 31.57 797.46 45.43V80.66C797.46 93.51 805.84 101.35 819.57 101.35M761.15 101.35C767.03 101.35 771.63 97.63 774 91.41V100H792.32V25.22H772.98V81.75C772.98 84.45 771.56 85.33 770.28 85.33C768.93 85.33 767.78 84.52 767.78 82.22V25.22H748.44V86.34C748.44 96.42 752.9 101.35 761.15 101.35ZM717.94 82.48V42.72C717.94 40.89 718.89 39.34 720.71 39.34C722.67 39.34 723.48 40.9 723.48 42.72V82.48C723.48 84.31 722.6 85.86 720.71 85.86C718.82 85.86 717.94 84.3 717.94 82.48ZM711.31 101.35C716.99 101.35 721.25 98.51 723.48 93.3V120.95H742.82V25.22H723.48V32.32C721.45 27.52 717.26 23.87 711.31 23.87C703.26 23.87 698.06 28.94 698.06 41.04V85.46C698.06 96.75 703.88 101.35 711.31 101.35ZM672.36 12.37C672.36 18.45 676.89 22.99 682.98 22.99C689.07 22.99 693.66 18.46 693.66 12.37C693.66 6.28 689.13 1.69 682.98 1.69C676.83 1.69 672.36 6.08 672.36 12.37ZM673.31 100H692.65V25.22H673.31V100ZM628.01 100H647.35V45.37C647.35 43.34 648.3 42.33 649.65 42.33C650.87 42.33 651.54 43.07 651.54 44.63V65.12H669.39V38.61C669.39 28.74 666.08 24.28 659.38 24.28C653.63 24.28 648.9 28.2 646.4 35.57V25.22H628.01V100ZM591.9 103.31V120.96H611.1V103.31C611.1 99.73 612.52 98.24 617.46 98.24L624.36 25.21H604.89L601.44 83.29H601.31L597.79 25.21H578.18L585.41 98.24C589.8 98.24 591.9 99.73 591.9 103.31ZM542.13 100H579.59V82.42H562.42V3.04H542.14V100H542.13ZM449.63 53.28C450.51 45.98 454.9 41.51 462.54 41.51C470.18 41.51 474.24 46.51 474.44 53.28H449.62H449.63ZM441.92 19.67H480.73L489.59 0.8H445.91L441.92 19.67ZM462.07 102.5C492.97 102.5 516.57 92.56 519.95 73.63H474.65C473.77 79.65 469.04 83.03 462.68 83.03C453.48 83.03 449.83 76.88 449.43 68.83H520.29V65.25C520.29 37.32 496.96 22.72 462.75 22.72C425.76 22.72 404.46 38.34 404.46 63.22C404.46 88.1 427.79 102.51 462.07 102.51M372.14 101.77C384.38 101.77 393.17 99.4 398.51 96.7V77.09C395.47 78.04 392.09 78.78 388.23 78.78C381.74 78.78 377.68 76.35 377.68 68.77V47.2H398.64V25.23H377.68V1.56L333.8 10.22V25.23H318.45V47.2H333.8V74.25C333.8 95.14 352.33 101.77 372.14 101.77ZM250.45 19.68H280.61L289.2 9.67L297.72 19.68H327.47L312.79 0.2C296.83 1.55 281.08 1.55 265.12 0.2L250.45 19.67V19.68ZM266.61 100.01H310.49V25.22H266.61V100.01ZM188.92 74.32C188.92 69.72 191.89 67.56 200.08 65.94L210.29 64.18V72.43C210.29 78.92 204.27 81.56 198.73 81.56C193.19 81.56 188.93 79.13 188.93 74.33M175.95 102.53C190.49 102.53 203.06 98.54 211.45 89.48C211.99 93.47 212.73 96.92 213.55 100.03H257.16C255.27 92.93 254.19 87.72 254.19 80.56V54.87C254.19 31.2 230.52 22.75 201.04 22.75C171.56 22.75 148.5 31.07 146.74 49.66H191.84C192.38 44.32 195.76 41.55 201.64 41.55C206.91 41.55 210.29 44.19 210.29 49.39V51.96L180 54.19C153.29 56.15 143.62 63.79 143.62 78.67C143.62 93.55 155.93 102.54 175.94 102.54M55.38 103.15C71.68 103.15 85.88 98.76 93.79 89.56V100.04H134.7V46.83H62.61V67.99H88.85C87.36 74.35 81.48 79.08 71.88 79.08C57.61 79.08 49.7 69.48 49.7 51.29C49.7 31.82 56.87 22.82 69.98 22.82C78.91 22.82 84.65 27.89 85.26 36.41H134.55C132.32 13.66 107.58 0 68.83 0C27.52 0 0 17.99 0 53.55C0 86.07 20.49 103.11 55.38 103.11" fill="#231F20"/>
</svg>
